<?xml version="1.0" encoding="UTF-8"?>
<svg id="Capa_2" data-name="Capa 2" xmlns="http://www.w3.org/2000/svg" viewBox="0 0 84.13 25.69">
  <defs>
    <style>
      .cls-1 {
        fill: #727272;
      }
    </style>
  </defs>
  <g id="Capa_1-2" data-name="Capa 1">
    <g>
      <g>
        <path d="M14.95,10.78l-5.23,14.74h-4.49L0,10.78h3.82l3.65,11.13,3.67-11.13h3.8Z"/>
        <path d="M27.43,20.52h-8.13c.06.73.29,1.29.7,1.67s.92.58,1.52.58c.9,0,1.52-.38,1.87-1.13h3.82c-.2.77-.55,1.46-1.06,2.08-.51.62-1.15,1.1-1.92,1.45s-1.63.52-2.58.52c-1.15,0-2.17-.24-3.07-.73s-1.6-1.19-2.1-2.1c-.5-.91-.76-1.97-.76-3.19s.25-2.28.75-3.19c.5-.91,1.19-1.61,2.09-2.1s1.92-.74,3.09-.74,2.14.24,3.02.71c.88.48,1.57,1.15,2.07,2.04.5.88.75,1.91.75,3.09,0,.34-.02.69-.06,1.05ZM23.81,18.53c0-.62-.21-1.11-.63-1.47-.42-.36-.94-.55-1.58-.55s-1.11.17-1.52.53c-.41.35-.67.85-.77,1.49h4.49Z"/>
        <path d="M32.97,9.98v15.54h-3.59v-15.54h3.59Z"/>
        <path d="M35.54,16.47c.45-.91,1.07-1.61,1.86-2.1s1.66-.74,2.62-.74c.83,0,1.55.17,2.17.5s1.1.78,1.44,1.32v-1.66h3.59v11.72h-3.59v-1.66c-.35.55-.84.99-1.46,1.32-.62.34-1.35.5-2.17.5-.95,0-1.82-.25-2.6-.75s-1.4-1.2-1.86-2.12c-.46-.92-.68-1.98-.68-3.18s.23-2.26.68-3.17ZM42.89,17.54c-.5-.52-1.1-.78-1.82-.78s-1.32.26-1.82.77-.75,1.21-.75,2.11.25,1.61.75,2.13c.5.52,1.1.79,1.82.79s1.32-.26,1.82-.78c.5-.52.75-1.23.75-2.12s-.25-1.6-.75-2.12Z"/>
        <path d="M55,14.23c.63-.37,1.33-.56,2.1-.56v3.8h-.99c-.9,0-1.57.19-2.02.58-.45.38-.67,1.06-.67,2.03v5.44h-3.59v-11.72h3.59v1.95c.42-.64.94-1.15,1.57-1.52Z"/>
        <path d="M58.79,16.47c.45-.91,1.07-1.61,1.86-2.1s1.66-.74,2.62-.74c.77,0,1.47.16,2.11.48.64.32,1.14.76,1.5,1.3v-5.44h3.59v15.54h-3.59v-1.68c-.34.56-.82,1.01-1.44,1.34-.62.34-1.35.5-2.17.5-.97,0-1.84-.25-2.62-.75s-1.4-1.2-1.86-2.12c-.46-.92-.68-1.98-.68-3.18s.23-2.26.68-3.17ZM66.14,17.54c-.5-.52-1.1-.78-1.82-.78s-1.32.26-1.82.77-.75,1.21-.75,2.11.25,1.61.75,2.13c.5.52,1.1.79,1.82.79s1.32-.26,1.82-.78c.5-.52.75-1.23.75-2.12s-.25-1.6-.75-2.12Z"/>
        <path d="M84.06,20.52h-8.13c.06.73.29,1.29.7,1.67s.92.58,1.52.58c.9,0,1.52-.38,1.87-1.13h3.82c-.2.77-.55,1.46-1.06,2.08-.51.62-1.15,1.1-1.92,1.45-.77.35-1.63.52-2.58.52-1.15,0-2.17-.24-3.07-.73-.9-.49-1.6-1.19-2.1-2.1-.5-.91-.76-1.97-.76-3.19s.25-2.28.75-3.19,1.19-1.61,2.09-2.1c.9-.49,1.92-.74,3.09-.74s2.14.24,3.02.71c.88.48,1.57,1.15,2.07,2.04.5.88.75,1.91.75,3.09,0,.34-.02.69-.06,1.05ZM80.45,18.53c0-.62-.21-1.11-.63-1.47-.42-.36-.95-.55-1.58-.55s-1.11.17-1.52.53c-.41.35-.67.85-.77,1.49h4.49Z"/>
      </g>
      <g>
        <path class="cls-1" d="M5.77,7.81h-3.34l-.55,1.6H.12L3.14,1.02h1.96l3.01,8.39h-1.78l-.55-1.6ZM5.32,6.47l-1.21-3.5-1.21,3.5h2.42Z"/>
        <path class="cls-1" d="M10.91.53v8.88h-1.68V.53h1.68Z"/>
        <path class="cls-1" d="M18.7,6.59h-4.86c.04.48.21.86.5,1.13s.66.41,1.09.41c.62,0,1.07-.27,1.33-.8h1.81c-.19.64-.56,1.17-1.1,1.58s-1.21.62-2,.62c-.64,0-1.21-.14-1.72-.43-.51-.28-.9-.69-1.19-1.21-.28-.52-.43-1.12-.43-1.8s.14-1.29.42-1.81c.28-.52.67-.92,1.18-1.2.5-.28,1.08-.42,1.74-.42s1.2.14,1.7.41c.5.27.89.66,1.16,1.16.28.5.41,1.07.41,1.72,0,.24-.02.46-.05.65ZM17.01,5.46c0-.43-.16-.78-.47-1.04-.3-.26-.68-.39-1.12-.39-.42,0-.77.13-1.05.38-.28.25-.46.6-.52,1.05h3.16Z"/>
        <path class="cls-1" d="M21.65,10.5c0,.74-.18,1.27-.55,1.59-.36.32-.89.49-1.57.49h-.74v-1.43h.48c.26,0,.44-.05.54-.15s.16-.26.16-.49V2.76h1.68v7.74ZM20.07,1.69c-.2-.19-.29-.42-.29-.7s.1-.51.29-.7c.2-.19.45-.28.75-.28s.54.09.73.28.29.42.29.7-.1.51-.29.7c-.19.19-.44.28-.73.28s-.55-.09-.75-.28Z"/>
        <path class="cls-1" d="M23.28,4.27c.27-.52.63-.92,1.09-1.2.46-.28.97-.42,1.54-.42.5,0,.93.1,1.3.3.37.2.67.45.89.76v-.95h1.69v6.65h-1.69v-.97c-.22.31-.51.57-.89.77-.38.2-.82.31-1.31.31-.56,0-1.07-.14-1.53-.43-.46-.29-.82-.69-1.09-1.22s-.4-1.13-.4-1.81.13-1.27.4-1.79ZM27.87,5.03c-.16-.29-.38-.52-.65-.67-.27-.16-.56-.23-.88-.23s-.6.08-.86.23c-.26.15-.48.37-.64.67-.16.29-.25.64-.25,1.04s.08.75.25,1.05c.16.3.38.53.65.69s.55.24.86.24.6-.08.88-.23c.27-.16.49-.38.65-.67.16-.29.24-.64.24-1.05s-.08-.76-.24-1.05Z"/>
        <path class="cls-1" d="M37.05,3.41c.49.5.73,1.2.73,2.09v3.9h-1.68v-3.67c0-.53-.13-.93-.4-1.22-.26-.28-.62-.43-1.08-.43s-.83.14-1.1.43c-.27.28-.4.69-.4,1.22v3.67h-1.68V2.76h1.68v.83c.22-.29.51-.51.86-.68.35-.16.73-.25,1.15-.25.79,0,1.43.25,1.92.75Z"/>
        <path class="cls-1" d="M39.34,4.27c.27-.52.63-.92,1.1-1.2.46-.28.98-.42,1.55-.42.43,0,.84.09,1.24.28s.7.44.94.75V.53h1.7v8.88h-1.7v-.98c-.21.33-.5.59-.88.79-.38.2-.81.3-1.31.3-.56,0-1.07-.14-1.54-.43-.46-.29-.83-.69-1.1-1.22s-.4-1.13-.4-1.81.13-1.27.4-1.79ZM43.94,5.03c-.16-.29-.38-.52-.65-.67-.27-.16-.56-.23-.88-.23s-.6.08-.86.23c-.26.15-.48.37-.64.67-.16.29-.25.64-.25,1.04s.08.75.25,1.05c.16.3.38.53.65.69.27.16.55.24.86.24s.6-.08.88-.23c.27-.16.49-.38.65-.67s.24-.64.24-1.05-.08-.76-.24-1.05Z"/>
        <path class="cls-1" d="M50.04,2.96c.35-.2.75-.3,1.19-.3v1.76h-.44c-.53,0-.93.12-1.19.37-.27.25-.4.68-.4,1.3v3.31h-1.68V2.76h1.68v1.03c.22-.35.5-.63.85-.83Z"/>
        <path class="cls-1" d="M52.33,4.27c.27-.52.63-.92,1.09-1.2.46-.28.97-.42,1.54-.42.5,0,.93.1,1.3.3.37.2.67.45.89.76v-.95h1.69v6.65h-1.69v-.97c-.22.31-.51.57-.89.77-.38.2-.82.31-1.31.31-.56,0-1.07-.14-1.53-.43-.46-.29-.82-.69-1.09-1.22-.27-.52-.4-1.13-.4-1.81s.13-1.27.4-1.79ZM56.92,5.03c-.16-.29-.38-.52-.65-.67-.27-.16-.56-.23-.88-.23s-.6.08-.86.23c-.26.15-.48.37-.64.67-.16.29-.25.64-.25,1.04s.08.75.25,1.05c.16.3.38.53.65.69.27.16.55.24.86.24s.6-.08.88-.23c.27-.16.49-.38.65-.67s.24-.64.24-1.05-.08-.76-.24-1.05Z"/>
      </g>
    </g>
  </g>
</svg>